PathFileType	4	(X/Y/Z)	/Users/itak/Documents/Research/Walk-IL/dataset/trc/00284_00010.trc
DataRate	CameraRate	NumFrames	NumMarkers	Units	OrigDataRate	OrigDataStartFrame	OrigNumFrames
100.000000	100.000000	4	54	mm	100.000000	469	626
Frame#	Time	RPSI			LPSI			L3			STRN			T10			C7			CLAV			RBAK			LBAK			LSHO			LUPA			LAEL			LAOL			LWTS			LWPS			LFRA			LIFD			LHPS			LHTS			RSHO			RUPA			RAEL			RAOL			RWTS			RWPS			RFRA			RIFD			RHTS			RHPS			RBHD			LFHD			RFHD			LBHD			LHIP			RASI			LASI			LKNE			LTHI			LANK			LTIP			LTOE			LMT1			LMT5			LHEE			RKNE			RANK			RTIP			RTOE			RMT5			RHEE			RMT1			RTHI			RHIP			*53			
		X1	Y1	Z1	X2	Y2	Z2	X3	Y3	Z3	X4	Y4	Z4	X5	Y5	Z5	X6	Y6	Z6	X7	Y7	Z7	X8	Y8	Z8	X9	Y9	Z9	X10	Y10	Z10	X11	Y11	Z11	X12	Y12	Z12	X13	Y13	Z13	X14	Y14	Z14	X15	Y15	Z15	X16	Y16	Z16	X17	Y17	Z17	X18	Y18	Z18	X19	Y19	Z19	X20	Y20	Z20	X21	Y21	Z21	X22	Y22	Z22	X23	Y23	Z23	X24	Y24	Z24	X25	Y25	Z25	X26	Y26	Z26	X27	Y27	Z27	X28	Y28	Z28	X29	Y29	Z29	X30	Y30	Z30	X31	Y31	Z31	X32	Y32	Z32	X33	Y33	Z33	X34	Y34	Z34	X35	Y35	Z35	X36	Y36	Z36	X37	Y37	Z37	X38	Y38	Z38	X39	Y39	Z39	X40	Y40	Z40	X41	Y41	Z41	X42	Y42	Z42	X43	Y43	Z43	X44	Y44	Z44	X45	Y45	Z45	X46	Y46	Z46	X47	Y47	Z47	X48	Y48	Z48	X49	Y49	Z49	X50	Y50	Z50	X51	Y51	Z51	X52	Y52	Z52	X53	Y53	Z53	X54	Y54	Z54	

470	4.69	-648.9020385742188	990.9322509765625	650.4431762695312	-496.3383178710938	984.06298828125	563.3935546875	-557.4927978515625	1056.608032226562	614.5919799804688	-431.7554931640625	1246.484497070312	816.7762451171875	-562.9672241210938	1169.820068359375	586.73046875	-518.5563354492188	1414.958251953125	602.1510009765625	-454.9375	1341.971557617188	750.4278564453125	-613.7140502929688	1281.744750976562	598.9905395507812	-436.2982482910156	1371.93896484375	541.3257446289062	-349.4853515625	1380.20361328125	597.0643310546875	-300.1225280761719	1260.767456054688	541.8035278320312	-282.5299987792969	1064.273681640625	552.9324340820312	-362.3016967773438	1039.267211914062	523.8759155273438	-256.0986328125	895.3392333984375	710.0742797851562	-211.5861206054688	870.4267578125	659.2775268554688	-254.2689056396484	974.7184448242188	589.2550048828125	-221.3829345703125	725.6533203125	781.9774780273438	-196.2718353271484	792.0667724609375	697.0281982421875	-211.7613677978516	815.1990356445312	756.3947143554688	-629.00732421875	1408.29150390625	733.0106201171875	-695.2494506835938	1354.777587890625	756.5018310546875	-773.7898559570312	1100.082641601562	762.9794921875	-705.399658203125	1083.06982421875	700.3864135742188	-730.7500610351562	859.4220581054688	820.4137573242188	-814.1171875	874.9010620117188	814.706787109375	-786.9638061523438	1033.556030273438	788.127685546875	-768.7974853515625	678.5839233398438	787.5286254882812	-758.9469604492188	741.7638549804688	832.898193359375	-826.1079711914062	759.8740234375	816.592529296875	-537.6978759765625	1596.046752929688	680.3997802734375	-338.36083984375	1583.734008789062	754.3265991210938	-413.7845458984375	1593.481201171875	807.8810424804688	-420.2246398925781	1572.48876953125	597.8571166992188	-378.1143188476562	936.1026000976562	576.4996948242188	-564.5750732421875	956.7665405273438	858.36376953125	-351.6609497070312	948.4246826171875	720.750732421875	-430.5403747558594	474.6051025390625	706.2498168945312	-392.7743530273438	612.4954223632812	675.452880859375	-560.3870849609375	50.17835998535156	638.4371948242188	-490.5211486816406	249.3366241455078	671.9099731445312	-568.9824829101562	38.88323593139648	854.308837890625	-622.9910888671875	32.71383666992188	793.2619018554688	-518.347900390625	45.25308609008789	755.7470703125	-629.6652221679688	44.58404922485352	608.5610961914062	-589.3414916992188	515.3890380859375	960.0567016601562	-793.7623291015625	145.5433197021484	796.929931640625	-613.8966064453125	395.6492919921875	943.7328491210938	-638.8582153320312	59.96575546264648	888.7918090820312	-749.3478393554688	88.38188171386719	873.8667602539062	-789.1167602539062	168.1571655273438	728.3486328125	-644.7232055664062	77.854248046875	822.0147705078125	-635.9491577148438	760.950439453125	892.04248046875	-686.175537109375	947.4204711914062	792.016845703125	nan	nan	nan	
471	4.7	-647.9073486328125	991.2234497070312	660.7122802734375	-497.6038513183594	983.7496337890625	569.781494140625	-557.0565185546875	1057.036254882812	621.5341796875	-426.8648681640625	1246.40283203125	821.7822875976562	-562.0889282226562	1170.11669921875	593.6630859375	-517.4345703125	1415.34130859375	609.0794677734375	-451.5197143554688	1341.954345703125	756.1148681640625	-612.0103759765625	1281.724731445312	606.9256591796875	-435.5957641601562	1372.76171875	547.0057373046875	-348.3777160644531	1381.1220703125	601.6378784179688	-299.2674865722656	1261.680786132812	545.6348876953125	-280.7610778808594	1065.726928710938	557.2158203125	-360.6101989746094	1039.690063476562	529.1351928710938	-249.6414642333984	900.43115234375	716.6160278320312	-206.0546722412109	874.5198364257812	665.4099731445312	-251.0966339111328	977.1969604492188	594.2463989257812	-211.8174591064453	733.101806640625	792.1392822265625	-189.3825073242188	797.3099975585938	704.78662109375	-203.4336395263672	821.9302368164062	763.8736572265625	-626.1675415039062	1407.815795898438	741.3727416992188	-692.2792358398438	1354.386840820312	765.1130981445312	-770.2400512695312	1099.348999023438	767.1506958007812	-701.7490844726562	1083.36767578125	704.4239501953125	-727.523681640625	857.6426391601562	820.8314819335938	-810.9547119140625	873.3737182617188	814.741455078125	-783.4542236328125	1032.556274414062	791.4028930664062	-765.3494262695312	677.19091796875	784.6239624023438	-755.9532470703125	739.930908203125	831.517333984375	-822.8973999023438	758.2679443359375	814.8407592773438	-535.8641357421875	1595.929809570312	688.31103515625	-335.6876525878906	1583.933349609375	759.9623413085938	-410.5072021484375	1593.293823242188	814.3574829101562	-419.2646789550781	1572.927734375	604.3880004882812	-379.1705322265625	935.7434692382812	580.1006469726562	-558.1651611328125	957.4525146484375	866.262939453125	-348.5614624023438	948.3067016601562	723.430908203125	-430.0131225585938	474.3528747558594	708.2628784179688	-392.5482788085938	612.2653198242188	677.7920532226562	-560.7858276367188	50.47838592529297	638.5875244140625	-490.567138671875	249.4088897705078	673.0496826171875	-568.9859008789062	38.78569030761719	854.4187622070312	-623.0909423828125	32.6502685546875	793.2603149414062	-518.36279296875	45.39738845825195	755.7891845703125	-630.1637573242188	44.97216796875	608.8103637695312	-579.33544921875	517.1790161132812	970.643310546875	-781.8448486328125	137.3361053466797	828.9764404296875	-602.8593139648438	396.5210876464844	959.0631713867188	-622.0792236328125	60.06620025634766	919.7120361328125	-733.5584716796875	85.54786682128906	907.3977661132812	-780.1465454101562	156.4028472900391	759.0841674804688	-630.5488891601562	74.14341735839844	852.2364501953125	-628.2074584960938	762.13623046875	902.801513671875	-681.44775390625	948.20263671875	803.3699951171875	nan	nan	nan	
472	4.71	-646.7521362304688	991.4988403320312	670.9345092773438	-498.7344665527344	983.438232421875	576.2514038085938	-556.4989013671875	1057.397827148438	628.4274291992188	-422.0042419433594	1246.233642578125	826.7276611328125	-561.0843505859375	1170.334716796875	600.6725463867188	-516.1956176757812	1415.667358398438	615.9569702148438	-448.0810241699219	1341.848266601562	761.766845703125	-610.23046875	1281.625244140625	614.814453125	-434.7608947753906	1373.473754882812	552.68310546875	-347.1792602539062	1381.875854492188	606.24365234375	-298.3791809082031	1262.433715820312	549.5269165039062	-279.0758666992188	1067.031005859375	561.4446411132812	-358.9593811035156	1040.022216796875	534.2671508789062	-243.4431915283203	905.3193969726562	722.736083984375	-200.662353515625	878.4486083984375	671.1992797851562	-248.0676574707031	979.5070190429688	599.0401611328125	-202.4067077636719	740.5175170898438	801.842529296875	-182.6534271240234	802.4109497070312	712.1720581054688	-195.3947906494141	828.5466918945312	770.9053344726562	-623.2149047851562	1407.28857421875	749.6641845703125	-689.2156982421875	1354.011962890625	773.6553344726562	-766.7960815429688	1098.731201171875	771.3904418945312	-698.1981811523438	1083.750732421875	708.5321655273438	-724.1847534179688	856.190673828125	821.6803588867188	-807.7313842773438	871.983642578125	815.0497436523438	-780.0591430664062	1031.711059570312	794.7570190429688	-761.4362182617188	675.9913330078125	782.7214965820312	-752.5887451171875	738.4007568359375	830.7550659179688	-819.2738647460938	756.7171630859375	813.61181640625	-533.9839477539062	1595.70263671875	696.2235717773438	-332.9912414550781	1584.07373046875	765.59375	-407.1936340332031	1593.012329101562	820.8287963867188	-418.2532043457031	1573.31298828125	610.9312744140625	-380.2032470703125	935.327880859375	583.8084716796875	-551.6956787109375	958.0475463867188	874.0149536132812	-345.4907836914062	948.1041870117188	726.1522216796875	-429.4881286621094	474.0702209472656	710.2830200195312	-392.2821960449219	612.0023803710938	680.0725708007812	-561.1841430664062	50.74524307250977	638.7540283203125	-490.5755920410156	249.4680633544922	674.2278442382812	-568.9857788085938	38.73989105224609	854.5455932617188	-623.2008056640625	32.57481384277344	793.27001953125	-518.3770751953125	45.53310775756836	755.8329467773438	-630.6026611328125	45.37584686279297	609.0316162109375	-569.63232421875	518.8050537109375	980.64990234375	-768.2684936523438	129.2448425292969	860.4962158203125	-591.6963500976562	397.3418884277344	973.7674560546875	-603.5675659179688	60.31716918945312	948.9257202148438	-716.0025634765625	82.66740417480469	939.6431274414062	-769.6182250976562	144.9738922119141	789.7427978515625	-614.70166015625	70.86695098876953	881.1454467773438	-620.6021728515625	763.1488647460938	913.1954345703125	-676.5712280273438	948.9724731445312	814.5432739257812	nan	nan	nan	
473	4.72	-645.4318237304688	991.734375	681.0560913085938	-499.6997680664062	983.1328125	582.8087768554688	-555.7816772460938	1057.62548828125	635.2970581054688	-417.1923828125	1245.989013671875	831.6261596679688	-559.9146728515625	1170.469604492188	607.7573852539062	-514.822998046875	1415.925170898438	622.7877197265625	-444.6278381347656	1341.66015625	767.3900146484375	-608.39013671875	1281.452514648438	622.6504516601562	-433.8104248046875	1374.064697265625	558.3548583984375	-345.8602294921875	1382.455200195312	610.8619995117188	-297.4383544921875	1263.027587890625	553.4804077148438	-277.4568481445312	1068.156494140625	565.585693359375	-357.352783203125	1040.248901367188	539.2796020507812	-237.5510406494141	909.955322265625	728.4793701171875	-195.4349975585938	882.2072143554688	676.691162109375	-245.1492309570312	981.6256713867188	603.6279907226562	-193.1926422119141	747.7872924804688	811.0112915039062	-176.0920562744141	807.3494873046875	719.1845092773438	-187.6799468994141	834.9722900390625	777.5072631835938	-620.1463623046875	1406.7158203125	757.88330078125	-686.0563354492188	1353.636840820312	782.1342163085938	-763.4265747070312	1098.210571289062	775.7843627929688	-694.7183227539062	1084.215698242188	712.7941284179688	-720.7241821289062	855.0119018554688	822.9863891601562	-804.4060668945312	870.6940307617188	815.710205078125	-776.7515869140625	1030.987548828125	798.2440795898438	-757.2019653320312	674.9638671875	781.83984375	-748.8567504882812	737.0858154296875	830.56591796875	-815.2847900390625	755.22412109375	812.9288940429688	-532.0421752929688	1595.3642578125	704.1254272460938	-330.2669067382812	1584.1484375	771.228515625	-403.8413696289062	1592.6337890625	827.2982177734375	-417.1795654296875	1573.641723632812	617.4900512695312	-381.1614074707031	934.8671264648438	587.6416015625	-545.21484375	958.5307006835938	881.6142578125	-342.4560852050781	947.8203735351562	728.9580688476562	-428.9535522460938	473.7708740234375	712.2513427734375	-391.9715881347656	611.72607421875	682.28515625	-561.5609130859375	50.97461700439453	638.9287109375	-490.5244445800781	249.5261688232422	675.3880615234375	-568.9713745117188	38.74414443969727	854.681884765625	-623.3005981445312	32.5063591003418	793.2951049804688	-518.3952026367188	45.65031814575195	755.877197265625	-630.9756469726562	45.7820930480957	609.2202758789062	-560.2152709960938	520.2584838867188	990.1533813476562	-753.0443725585938	121.3697738647461	891.35205078125	-580.337646484375	398.0911560058594	987.870849609375	-583.4053344726562	60.75777816772461	976.3567504882812	-696.7233276367188	79.78190612792969	970.4998168945312	-757.5074462890625	134.0003814697266	820.140625	-597.2521362304688	68.06139373779297	908.6137084960938	-613.1627807617188	764.011474609375	923.2568969726562	-671.572021484375	949.6759643554688	825.4909057617188	nan	nan	nan	
